<svg width="32" height="32" viewBox="0 0 32 32" fill="none" xmlns="http://www.w3.org/2000/svg">
<g clip-path="url(#clip0_12_11)">
<path d="M12.7643 19.1578C12.6498 19.1392 12.6049 19.1322 12.56 19.1247C11.1091 18.8817 10.192 18.0912 9.75739 16.8486C9.48647 16.074 9.97875 15.5035 10.8811 15.466C11.6199 15.4352 12.1256 15.8175 12.5728 16.2624C13.1493 16.836 13.6777 17.4485 14.2439 18.0307C15.0591 18.8688 16.0196 19.4086 17.3338 19.242C18.5122 19.0926 19.5391 18.6668 20.4327 17.966C20.567 17.8607 20.7144 17.7689 20.8558 17.6708L20.7667 17.5761C20.0166 17.7859 19.2515 17.8564 18.4699 17.821C17.2871 17.7674 16.16 17.5451 15.1516 16.9604C14.2314 16.4268 13.5528 15.7118 13.2302 14.7568C12.9696 13.9854 13.5029 13.4457 14.3908 13.5572C14.7419 13.6013 15.0374 13.7436 15.3026 13.9455C15.5186 14.1097 15.7257 14.2838 15.946 14.4431C16.9823 15.1929 18.4305 15.2346 19.746 14.4205C17.5833 14.4116 16.1119 13.3405 14.8196 11.9831C14.3138 11.4518 13.82 10.911 13.3037 10.3881C12.3048 9.37628 11.1967 8.48485 9.6793 8.18076C7.74103 7.79228 5.86978 8.04618 4.07367 8.78684C3.71552 8.9345 3.37159 9.1062 3.00238 9.38286C3.18516 9.38286 3.28488 9.38487 3.38439 9.38259C4.28996 9.36156 4.96858 9.72389 5.45802 10.3909C5.81423 10.8763 5.98208 11.4252 6.11003 11.9899C6.29992 12.8281 6.20162 13.6826 6.31129 14.5245C6.59318 16.6891 7.82186 18.1996 10.1096 18.9731C10.9486 19.2568 11.8091 19.3512 12.7643 19.1578ZM6.9825 9.28375C6.621 9.36586 6.33211 9.23447 6.03438 8.9632C6.54423 8.84883 6.99387 8.80448 7.47701 8.78739C7.43751 9.06981 7.2525 9.2225 6.9825 9.28375ZM18.8284 21.9238C18.7969 21.7155 18.5992 21.6237 18.4438 21.5147C17.7561 21.0328 16.9519 20.8622 16.0992 20.848C15.5904 20.8396 15.0868 20.8054 14.6069 20.6448C14.387 20.5712 14.1409 20.4766 14.1465 20.2207C14.1521 19.9611 14.403 19.8876 14.6314 19.8262C14.8183 19.7759 15.0113 19.7438 15.2241 19.699C14.6835 19.3871 14.1554 19.3438 13.4517 19.5986C12.3439 19.9996 11.2518 19.9521 10.1475 19.5931C9.52404 19.3905 8.97072 19.0724 8.39467 18.7907L8.37893 18.8005L8.39385 18.7911C8.37964 18.752 8.35385 18.751 8.32074 18.7729L8.36593 18.8085C8.84369 19.5135 9.48911 20.0807 10.2182 20.5655C11.6223 21.499 13.1561 22.0557 14.9506 21.8086C15.5308 21.7286 16.1139 21.6671 16.6988 21.6245C17.4318 21.5712 18.1301 21.7569 18.8284 21.9238ZM15.4451 11.8101C15.4063 11.7848 15.369 11.7212 15.2898 11.787C15.9354 12.5733 16.7648 13.1529 17.7635 13.5178C19.3753 14.1067 21.0112 14.2075 22.6843 13.6878C23.9833 13.2844 24.9174 13.6785 25.4025 14.8141C25.4726 13.496 24.6114 12.5357 23.2397 12.3474C22.4679 12.2416 21.7554 12.472 21.0325 12.6608C19.0208 13.186 17.1514 12.9267 15.4451 11.8101ZM25.4712 16.951C25.7334 16.9708 25.9954 16.9922 26.2575 17.0129C25.6653 16.5445 24.9435 16.5073 24.2133 16.5447C23.1014 16.6016 22.3003 17.179 21.57 17.8688C20.9265 18.4768 20.3451 19.1589 19.3848 19.4032C19.4008 19.4291 19.405 19.4421 19.4094 19.4421C19.5386 19.4438 19.6681 19.4493 19.7969 19.444C21.1916 19.3872 22.5055 19.1223 23.5507 18.2109C23.8798 17.9239 24.1744 17.6051 24.4921 17.3072C24.7571 17.0588 25.0785 16.9211 25.4712 16.951ZM22.2312 15.3947C21.1904 15.4766 20.2863 15.8642 19.4371 16.3754C18.7834 16.7688 18.0844 16.955 17.2988 16.8319C17.1606 16.8102 17.0214 16.7941 16.8827 16.7753L16.8779 16.8276C16.9279 16.8507 16.9761 16.8778 17.0281 16.8964C17.159 16.943 17.288 16.9991 17.4238 17.0282C18.9354 17.3518 20.3824 17.186 21.6871 16.4272C22.5094 15.949 23.3606 15.8584 24.2832 15.9819C24.3765 15.9944 24.4693 16.0097 24.5629 16.0176C24.6496 16.025 24.7402 16.1026 24.8573 16.0186C24.0507 15.4939 23.1819 15.3199 22.2312 15.3947ZM18.5113 12.2136C19.0573 12.2306 19.6008 12.1662 20.1719 11.8608C20.0047 11.8741 19.9337 11.8738 19.8657 11.8861C19.0789 12.0273 18.3727 11.8727 17.7436 11.4249C17.5128 11.2605 17.2781 11.1005 17.0444 10.9395C16.1177 10.3014 15.055 10.0879 13.8927 10.106C13.9114 10.1574 13.9126 10.1927 13.9328 10.211C15.1975 11.3628 16.6613 12.1562 18.5113 12.2136ZM27.6647 18.1233C26.882 17.4244 25.8316 17.3343 24.8596 17.9443C25.503 17.9704 25.9859 18.1552 26.3776 18.5203C26.5162 18.6495 26.6599 18.7763 26.8149 18.889C27.4071 19.319 28.4111 19.3397 28.9976 18.9407C28.3086 18.6986 28.3086 18.6986 27.6647 18.1233ZM19.8694 23.476C19.1816 22.3232 18.0255 22.0631 16.69 22.1404C17.0848 22.239 17.4535 22.3907 17.7918 22.6033C18.1027 22.7987 18.3642 23.0406 18.6221 23.2884C19.1329 23.7793 19.9303 24.0806 20.4586 23.9787C20.216 23.841 20.0005 23.6956 19.8694 23.476ZM26.2698 17.0366C26.27 17.0293 26.2703 17.0218 26.2708 17.0142L26.2687 17.0161L26.271 17.0139L26.2575 17.0129C26.2601 17.015 26.2629 17.0168 26.2656 17.019L26.2698 17.0366ZM18.8666 21.951L18.8395 21.9372C18.8404 21.9423 18.8424 21.9472 18.8452 21.9517C18.847 21.9545 18.8592 21.9514 18.8666 21.951ZM18.8395 21.9372C18.8388 21.9334 18.8379 21.9296 18.8368 21.9259L18.8337 21.9293L18.8368 21.9259L18.8284 21.9238C18.8289 21.927 18.8301 21.9295 18.8305 21.9327L18.8395 21.9372Z" fill="#FD4F00"/>
</g>
<defs>
<clipPath id="clip0_12_11">
<rect width="26" height="16" fill="white" transform="translate(3 8)"/>
</clipPath>
</defs>
</svg>
