<svg width="16" height="16" viewBox="0 0 16 16" fill="none" xmlns="http://www.w3.org/2000/svg">
<g clip-path="url(#clip0_12_13)">
<path d="M6.25752 9.57888C6.19584 9.5696 6.17168 9.56608 6.14751 9.56233C5.36628 9.44087 4.87243 9.04562 4.63841 8.42428C4.49253 8.03698 4.75761 7.75177 5.24347 7.73298C5.6413 7.71758 5.9136 7.90876 6.1544 8.1312C6.4648 8.41801 6.74934 8.72425 7.05422 9.01536C7.49318 9.43442 8.01037 9.70428 8.71801 9.62098C9.35254 9.54629 9.90549 9.3334 10.3867 8.983C10.459 8.93033 10.5383 8.88444 10.6145 8.83538L10.5665 8.78807C10.1626 8.89294 9.75064 8.92818 9.32974 8.91049C8.69285 8.8837 8.08599 8.77253 7.54299 8.48018C7.0475 8.2134 6.68209 7.85591 6.50838 7.37842C6.36808 6.99269 6.65524 6.72284 7.13334 6.77861C7.32236 6.80064 7.48147 6.87182 7.62429 6.97276C7.74059 7.05486 7.85213 7.1419 7.97073 7.22153C8.52877 7.59644 9.30852 7.61728 10.0169 7.21024C8.85235 7.20581 8.06007 6.67026 7.36419 5.99154C7.09184 5.7259 6.82595 5.4555 6.54797 5.19406C6.0101 4.68814 5.41341 4.24242 4.59636 4.09038C3.55268 3.89614 2.54508 4.02309 1.57795 4.39342C1.3851 4.46725 1.19991 4.5531 1.0011 4.69143C1.09952 4.69143 1.15321 4.69244 1.2068 4.69129C1.69441 4.68078 2.05982 4.86194 2.32336 5.19543C2.51517 5.43813 2.60555 5.7126 2.67445 5.99497C2.7767 6.41404 2.72377 6.84128 2.78282 7.26226C2.9346 8.34455 3.5962 9.0998 4.82809 9.48654C5.27983 9.62839 5.74317 9.67561 6.25752 9.57888ZM3.14424 4.64188C2.94959 4.68293 2.79403 4.61724 2.63371 4.4816C2.90825 4.42441 3.15036 4.40224 3.41052 4.39369C3.38925 4.53491 3.28962 4.61125 3.14424 4.64188ZM9.5228 10.9619C9.50585 10.8577 9.3994 10.8118 9.31568 10.7574C8.94541 10.5164 8.51236 10.4311 8.05324 10.424C7.77925 10.4198 7.5081 10.4027 7.2497 10.3224C7.13126 10.2856 6.99878 10.2383 7.00179 10.1104C7.0048 9.98053 7.1399 9.94382 7.26287 9.9131C7.36354 9.88796 7.46742 9.87191 7.58203 9.84951C7.29092 9.69353 7.00655 9.67191 6.62763 9.79932C6.03115 9.99982 5.4431 9.97605 4.84848 9.79653C4.51276 9.69523 4.21482 9.53619 3.90464 9.39534L3.89616 9.40023L3.9042 9.39557C3.89654 9.376 3.88266 9.3755 3.86483 9.38643L3.88916 9.40425C4.14642 9.75676 4.49395 10.0404 4.88654 10.2827C5.64262 10.7495 6.46846 11.0278 7.43478 10.9043C7.74715 10.8643 8.06112 10.8336 8.37611 10.8123C8.77077 10.7856 9.14679 10.8784 9.5228 10.9619ZM7.701 5.90505C7.68012 5.89239 7.66005 5.86062 7.6174 5.89349C7.96504 6.28663 8.41165 6.57646 8.9494 6.7589C9.8173 7.05335 10.6982 7.10373 11.5991 6.84389C12.2985 6.6422 12.8015 6.83927 13.0627 7.40704C13.1005 6.74802 12.6367 6.26784 11.8981 6.17372C11.4826 6.12078 11.0989 6.23602 10.7096 6.33042C9.62642 6.59301 8.61981 6.46336 7.701 5.90505ZM13.0997 8.47548C13.2409 8.4854 13.3819 8.49609 13.5231 8.50643C13.2042 8.27223 12.8155 8.25367 12.4224 8.27237C11.8236 8.3008 11.3923 8.58949 10.999 8.9344C10.6525 9.2384 10.3395 9.57943 9.82238 9.70158C9.83102 9.71456 9.83326 9.72105 9.83567 9.72105C9.90522 9.72192 9.97493 9.72466 10.0443 9.72201C10.7953 9.69358 11.5028 9.56114 12.0656 9.10546C12.2428 8.96197 12.4014 8.80256 12.5725 8.65362C12.7152 8.52942 12.8883 8.46057 13.0997 8.47548ZM11.3551 7.69733C10.7947 7.73829 10.3078 7.93212 9.85054 8.18771C9.49858 8.38441 9.12218 8.47749 8.6992 8.41596C8.62478 8.40512 8.54982 8.39703 8.47513 8.38766L8.47256 8.41381C8.49946 8.42537 8.52543 8.4389 8.55343 8.44818C8.62391 8.4715 8.69335 8.49957 8.7665 8.51411C9.58043 8.67589 10.3596 8.59301 11.0621 8.21362C11.5049 7.97449 11.9632 7.92919 12.46 7.99095C12.5102 7.99721 12.5602 8.00485 12.6106 8.00878C12.6573 8.01248 12.7061 8.05129 12.7691 8.00928C12.3348 7.74697 11.867 7.65993 11.3551 7.69733ZM9.35205 6.10679C9.64605 6.11529 9.93874 6.08311 10.2462 5.93038C10.1562 5.93705 10.118 5.93692 10.0813 5.94304C9.65769 6.01363 9.27741 5.93637 8.93868 5.71246C8.8144 5.63026 8.68804 5.55026 8.56218 5.46976C8.06319 5.15068 7.49099 5.04393 6.8651 5.05298C6.87521 5.07872 6.87581 5.09637 6.88669 5.10551C7.5677 5.68142 8.35588 6.07808 9.35205 6.10679ZM14.2808 9.06167C13.8593 8.71218 13.2937 8.66716 12.7704 8.97216C13.1168 8.98519 13.3769 9.07758 13.5877 9.26016C13.6624 9.32476 13.7398 9.38816 13.8232 9.44448C14.1421 9.65952 14.6827 9.66985 14.9985 9.47036C14.6275 9.3493 14.6275 9.3493 14.2808 9.06167ZM10.0834 11.738C9.71297 11.1616 9.09047 11.0315 8.37135 11.0702C8.58394 11.1195 8.78247 11.1953 8.96466 11.3017C9.13202 11.3994 9.27287 11.5203 9.4117 11.6442C9.68678 11.8896 10.1161 12.0403 10.4006 11.9894C10.27 11.9205 10.1539 11.8478 10.0834 11.738ZM13.5297 8.51831C13.5298 8.51465 13.53 8.51092 13.5302 8.50711L13.5291 8.50807L13.5303 8.50697L13.5231 8.50643C13.5245 8.50752 13.526 8.50839 13.5274 8.50949L13.5297 8.51831ZM9.54336 10.9755L9.52876 10.9686C9.52928 10.9711 9.53032 10.9736 9.53183 10.9759C9.53281 10.9772 9.53937 10.9757 9.54336 10.9755ZM9.52876 10.9686C9.5284 10.9667 9.52792 10.9648 9.52734 10.9629L9.52565 10.9647L9.52734 10.963L9.5228 10.9619C9.52308 10.9635 9.52373 10.9648 9.52395 10.9664L9.52876 10.9686Z" fill="#FD4F00"/>
</g>
<defs>
<clipPath id="clip0_12_13">
<rect width="14" height="8" fill="white" transform="translate(1 4)"/>
</clipPath>
</defs>
</svg>
